<svg width="697" height="43" viewBox="0 0 697 43" fill="none" xmlns="http://www.w3.org/2000/svg">
<path d="M17.436 34.616C14.972 34.616 12.6987 34.22 10.616 33.428C8.53333 32.636 6.71467 31.5213 5.16 30.084C3.63467 28.6173 2.44667 26.916 1.596 24.98C0.745333 23.044 0.32 20.9173 0.32 18.6C0.32 16.2827 0.745333 14.156 1.596 12.22C2.44667 10.284 3.63467 8.59733 5.16 7.16C6.71467 5.69333 8.53333 4.564 10.616 3.772C12.6987 2.98 14.972 2.584 17.436 2.584C19.9293 2.584 22.2027 2.98 24.256 3.772C26.3387 4.564 28.1427 5.69333 29.668 7.16C31.1933 8.59733 32.3813 10.284 33.232 12.22C34.112 14.156 34.552 16.2827 34.552 18.6C34.552 20.9173 34.112 23.0587 33.232 25.024C32.3813 26.96 31.1933 28.6467 29.668 30.084C28.1427 31.5213 26.3387 32.636 24.256 33.428C22.2027 34.22 19.9293 34.616 17.436 34.616ZM17.436 27.4C18.6093 27.4 19.6947 27.1947 20.692 26.784C21.7187 26.3733 22.5987 25.7867 23.332 25.024C24.0947 24.232 24.6813 23.2933 25.092 22.208C25.532 21.1227 25.752 19.92 25.752 18.6C25.752 17.2507 25.532 16.048 25.092 14.992C24.6813 13.9067 24.0947 12.9827 23.332 12.22C22.5987 11.428 21.7187 10.8267 20.692 10.416C19.6947 10.0053 18.6093 9.8 17.436 9.8C16.2627 9.8 15.1627 10.0053 14.136 10.416C13.1387 10.8267 12.2587 11.428 11.496 12.22C10.7627 12.9827 10.176 13.9067 9.736 14.992C9.32533 16.048 9.12 17.2507 9.12 18.6C9.12 19.92 9.32533 21.1227 9.736 22.208C10.176 23.2933 10.7627 24.232 11.496 25.024C12.2587 25.7867 13.1387 26.3733 14.136 26.784C15.1627 27.1947 16.2627 27.4 17.436 27.4ZM50.6942 34.616C48.7582 34.616 46.9542 34.3373 45.2822 33.78C43.6395 33.2227 42.2022 32.3427 40.9702 31.14C39.7675 29.9373 38.8142 28.368 38.1102 26.432C37.4355 24.496 37.0982 22.1493 37.0982 19.392C37.0982 17.544 37.2595 15.8427 37.5822 14.288C37.9048 12.7333 38.3888 11.3107 39.0342 10.02C39.7088 8.7 40.5595 7.54133 41.5862 6.544C42.6422 5.54666 43.8742 4.71066 45.2822 4.036C46.6902 3.36133 48.3035 2.848 50.1222 2.496L61.6942 0.295999L62.8382 7.292L52.8062 9.184C52.1902 9.30133 51.5155 9.448 50.7822 9.624C50.0782 9.8 49.3888 10.064 48.7142 10.416C48.0395 10.7387 47.4088 11.1933 46.8222 11.78C46.2648 12.3667 45.8102 13.144 45.4582 14.112C45.1355 15.0507 44.9742 16.224 44.9742 17.632C44.9742 18.0427 44.9888 18.38 45.0182 18.644C45.0768 18.8787 45.1208 19.1573 45.1502 19.48C45.1795 19.7733 45.1942 20.228 45.1942 20.844L42.8622 18.688C43.5662 17.456 44.4022 16.4147 45.3702 15.564C46.3675 14.7133 47.5115 14.0533 48.8022 13.584C50.0928 13.1147 51.5302 12.88 53.1142 12.88C55.4315 12.88 57.4262 13.3347 59.0982 14.244C60.7702 15.124 62.0462 16.356 62.9262 17.94C63.8355 19.4947 64.2902 21.2693 64.2902 23.264C64.2902 25.6107 63.7035 27.6347 62.5302 29.336C61.3568 31.008 59.7435 32.3133 57.6902 33.252C55.6662 34.1613 53.3342 34.616 50.6942 34.616ZM50.9142 28.28C51.8822 28.28 52.7182 28.0747 53.4222 27.664C54.1555 27.2533 54.7275 26.6813 55.1382 25.948C55.5488 25.2147 55.7542 24.3933 55.7542 23.484C55.7542 22.5453 55.5488 21.7387 55.1382 21.064C54.7275 20.3893 54.1555 19.8613 53.4222 19.48C52.7182 19.0987 51.8822 18.908 50.9142 18.908C49.9462 18.908 49.0808 19.0987 48.3182 19.48C47.5848 19.8613 47.0128 20.3747 46.6022 21.02C46.1915 21.6653 45.9862 22.4427 45.9862 23.352C45.9862 24.2613 46.1915 25.0973 46.6022 25.86C47.0128 26.6227 47.5848 27.224 48.3182 27.664C49.0808 28.0747 49.9462 28.28 50.9142 28.28ZM92.8334 34V10.152H101.149V34H92.8334ZM81.3494 17.544C84.5174 17.5733 86.8788 18.2773 88.4334 19.656C90.0174 21.0347 90.8094 23 90.8094 25.552C90.8094 28.192 89.9001 30.2747 88.0814 31.8C86.2628 33.296 83.6668 34.0293 80.2934 34H67.7094V10.152H76.0254V17.544H81.3494ZM79.4574 28.28C80.4548 28.28 81.2321 28.0453 81.7894 27.576C82.3468 27.1067 82.6254 26.388 82.6254 25.42C82.6254 24.4227 82.3468 23.7187 81.7894 23.308C81.2614 22.8973 80.4841 22.6773 79.4574 22.648H76.0254V28.236L79.4574 28.28ZM121.463 25.2C120.642 25.6987 119.688 26.1093 118.603 26.432C117.518 26.7253 116.256 26.872 114.819 26.872C111.504 26.872 108.996 26.1387 107.295 24.672C105.623 23.176 104.787 20.8 104.787 17.544V10.152H113.147V16.972C113.147 18.3213 113.455 19.2747 114.071 19.832C114.687 20.3893 115.582 20.668 116.755 20.668C117.664 20.668 118.5 20.5653 119.263 20.36C120.055 20.1253 120.774 19.8173 121.419 19.436L121.463 25.2ZM120.891 34V10.152H129.207V34H120.891ZM134.419 34V10.152H142.735V18.996H151.315V10.152H159.675V34H151.315V25.64H142.735V34H134.419ZM189.998 34V10.152H198.314V34H189.998ZM178.514 17.544C181.682 17.5733 184.043 18.2773 185.598 19.656C187.182 21.0347 187.974 23 187.974 25.552C187.974 28.192 187.064 30.2747 185.246 31.8C183.427 33.296 180.831 34.0293 177.458 34H164.874V10.152H173.19V17.544H178.514ZM176.622 28.28C177.619 28.28 178.396 28.0453 178.954 27.576C179.511 27.1067 179.79 26.388 179.79 25.42C179.79 24.4227 179.511 23.7187 178.954 23.308C178.426 22.8973 177.648 22.6773 176.622 22.648H173.19V28.236L176.622 28.28ZM203.535 34V10.152H211.851V22.648L221.839 10.152H229.539V34H221.179V21.46L211.279 34H203.535ZM215.943 7.864C213.127 7.864 211.045 7.27733 209.695 6.104C208.375 4.90133 207.701 3.068 207.671 0.603997H213.083C213.113 1.572 213.333 2.33467 213.743 2.892C214.183 3.42 214.902 3.684 215.899 3.684C216.897 3.684 217.63 3.42 218.099 2.892C218.569 2.33467 218.803 1.572 218.803 0.603997H224.303C224.303 3.068 223.614 4.90133 222.235 6.104C220.886 7.27733 218.789 7.864 215.943 7.864ZM263.805 34L256.545 22.868L263.277 18.908L273.661 34H263.805ZM247.085 34V10.152H255.445V34H247.085ZM252.981 25.508V18.952H261.605V25.508H252.981ZM264.113 23L256.281 22.208L264.289 10.152H273.133L264.113 23ZM279.061 42.932C277.799 42.932 276.523 42.7267 275.233 42.316C273.971 41.9347 272.945 41.4213 272.153 40.776L275.057 34.924C275.555 35.364 276.127 35.7013 276.773 35.936C277.447 36.2 278.107 36.332 278.753 36.332C279.662 36.332 280.381 36.1267 280.909 35.716C281.437 35.3053 281.891 34.66 282.273 33.78L283.373 31.008L284.033 30.172L292.129 10.152H300.093L289.797 34.968C288.975 37.0213 288.022 38.62 286.937 39.764C285.881 40.9373 284.693 41.7587 283.373 42.228C282.082 42.6973 280.645 42.932 279.061 42.932ZM282.317 35.012L271.801 10.152H280.381L288.125 29.424L282.317 35.012ZM317.369 34.396C315.345 34.396 313.615 33.956 312.177 33.076C310.74 32.1667 309.64 30.8173 308.877 29.028C308.144 27.2093 307.777 24.892 307.777 22.076C307.777 19.2307 308.129 16.9133 308.833 15.124C309.537 13.3053 310.593 11.956 312.001 11.076C313.439 10.196 315.228 9.756 317.369 9.756C319.54 9.756 321.505 10.2693 323.265 11.296C325.055 12.2933 326.463 13.716 327.489 15.564C328.545 17.3827 329.073 19.5533 329.073 22.076C329.073 24.5987 328.545 26.784 327.489 28.632C326.463 30.48 325.055 31.9027 323.265 32.9C321.505 33.8973 319.54 34.396 317.369 34.396ZM302.365 42.536V10.152H310.329V14.2L310.285 22.076L310.725 29.996V42.536H302.365ZM315.609 27.752C316.548 27.752 317.384 27.532 318.117 27.092C318.88 26.652 319.481 26.0067 319.921 25.156C320.391 24.3053 320.625 23.2787 320.625 22.076C320.625 20.8733 320.391 19.8467 319.921 18.996C319.481 18.1453 318.88 17.5 318.117 17.06C317.384 16.62 316.548 16.4 315.609 16.4C314.671 16.4 313.82 16.62 313.057 17.06C312.324 17.5 311.723 18.1453 311.253 18.996C310.813 19.8467 310.593 20.8733 310.593 22.076C310.593 23.2787 310.813 24.3053 311.253 25.156C311.723 26.0067 312.324 26.652 313.057 27.092C313.82 27.532 314.671 27.752 315.609 27.752ZM344.616 34.396C341.976 34.396 339.615 33.868 337.532 32.812C335.479 31.756 333.865 30.304 332.692 28.456C331.519 26.5787 330.932 24.4373 330.932 22.032C330.932 19.6267 331.519 17.5 332.692 15.652C333.865 13.804 335.479 12.3667 337.532 11.34C339.615 10.284 341.976 9.756 344.616 9.756C347.315 9.756 349.647 10.328 351.612 11.472C353.577 12.616 354.971 14.2293 355.792 16.312L349.324 19.612C348.767 18.4973 348.077 17.6907 347.256 17.192C346.435 16.664 345.54 16.4 344.572 16.4C343.604 16.4 342.724 16.62 341.932 17.06C341.14 17.5 340.509 18.1453 340.04 18.996C339.6 19.8173 339.38 20.8293 339.38 22.032C339.38 23.264 339.6 24.3053 340.04 25.156C340.509 26.0067 341.14 26.652 341.932 27.092C342.724 27.532 343.604 27.752 344.572 27.752C345.54 27.752 346.435 27.5027 347.256 27.004C348.077 26.476 348.767 25.6547 349.324 24.54L355.792 27.84C354.971 29.9227 353.577 31.536 351.612 32.68C349.647 33.824 347.315 34.396 344.616 34.396Z" fill="#8D8D8D"/>
<path d="M390.09 34L380.278 10.152H388.858L396.69 30.084H392.378L400.606 10.152H408.57L398.714 34H390.09ZM418.572 34.396C416.548 34.396 414.568 34.1613 412.632 33.692C410.726 33.2227 409.186 32.636 408.012 31.932L410.52 26.212C411.635 26.8867 412.94 27.4293 414.436 27.84C415.932 28.2213 417.399 28.412 418.836 28.412C420.244 28.412 421.212 28.2653 421.74 27.972C422.298 27.6787 422.576 27.2827 422.576 26.784C422.576 26.3147 422.312 25.9773 421.784 25.772C421.286 25.5373 420.611 25.3613 419.76 25.244C418.939 25.1267 418.03 24.9947 417.032 24.848C416.035 24.7013 415.023 24.5107 413.996 24.276C412.999 24.012 412.075 23.6307 411.224 23.132C410.403 22.604 409.743 21.9 409.244 21.02C408.746 20.14 408.496 19.0253 408.496 17.676C408.496 16.1507 408.936 14.8013 409.816 13.628C410.726 12.4253 412.046 11.4867 413.776 10.812C415.507 10.108 417.619 9.756 420.112 9.756C421.784 9.756 423.471 9.932 425.172 10.284C426.903 10.6067 428.355 11.1053 429.528 11.78L427.02 17.456C425.847 16.7813 424.674 16.3267 423.5 16.092C422.327 15.828 421.212 15.696 420.156 15.696C418.748 15.696 417.751 15.8573 417.164 16.18C416.607 16.5027 416.328 16.8987 416.328 17.368C416.328 17.8373 416.578 18.204 417.076 18.468C417.575 18.7027 418.235 18.8933 419.056 19.04C419.907 19.1573 420.831 19.2893 421.828 19.436C422.826 19.5533 423.823 19.744 424.82 20.008C425.847 20.272 426.771 20.668 427.592 21.196C428.443 21.6947 429.118 22.384 429.616 23.264C430.115 24.1147 430.364 25.2147 430.364 26.564C430.364 28.0307 429.91 29.3507 429 30.524C428.12 31.6973 426.8 32.636 425.04 33.34C423.31 34.044 421.154 34.396 418.572 34.396ZM437.047 34.396C435.639 34.396 434.451 33.9267 433.483 32.988C432.515 32.0493 432.031 30.8613 432.031 29.424C432.031 27.928 432.515 26.74 433.483 25.86C434.451 24.9507 435.639 24.496 437.047 24.496C438.455 24.496 439.643 24.9507 440.611 25.86C441.579 26.74 442.063 27.928 442.063 29.424C442.063 30.8613 441.579 32.0493 440.611 32.988C439.643 33.9267 438.455 34.396 437.047 34.396Z" fill="#C81F56"/>
<path d="M491.485 3.2H500.197V34H491.485V3.2ZM479.605 34H470.893V3.2H479.605V34ZM492.101 21.988H478.989V14.772H492.101V21.988ZM520.015 34V29.556L519.443 28.456V20.272C519.443 18.952 519.032 17.94 518.211 17.236C517.419 16.5027 516.143 16.136 514.383 16.136C513.239 16.136 512.08 16.3267 510.907 16.708C509.734 17.06 508.736 17.5587 507.915 18.204L505.099 12.528C506.448 11.648 508.062 10.9733 509.939 10.504C511.846 10.0053 513.738 9.756 515.615 9.756C519.487 9.756 522.479 10.6507 524.591 12.44C526.732 14.2 527.803 16.972 527.803 20.756V34H520.015ZM512.975 34.396C511.068 34.396 509.455 34.0733 508.135 33.428C506.815 32.7827 505.803 31.9027 505.099 30.788C504.424 29.6733 504.087 28.4267 504.087 27.048C504.087 25.5813 504.454 24.32 505.187 23.264C505.95 22.1787 507.108 21.3573 508.663 20.8C510.218 20.2133 512.227 19.92 514.691 19.92H520.323V24.276H515.835C514.486 24.276 513.532 24.496 512.975 24.936C512.447 25.376 512.183 25.9627 512.183 26.696C512.183 27.4293 512.462 28.016 513.019 28.456C513.576 28.896 514.339 29.116 515.307 29.116C516.216 29.116 517.038 28.896 517.771 28.456C518.534 27.9867 519.091 27.2827 519.443 26.344L520.587 29.424C520.147 31.0667 519.282 32.3133 517.991 33.164C516.73 33.9853 515.058 34.396 512.975 34.396ZM548.98 27.312L547.176 29.204V10.152H555.492V29.204L553.6 27.312H563.72L561.916 29.204V10.152H570.188V34H532.392V10.152H540.708V29.204L538.904 27.312H548.98ZM604.479 34L597.219 22.868L603.951 18.908L614.335 34H604.479ZM587.759 34V10.152H596.119V34H587.759ZM593.655 25.508V18.952H602.279V25.508H593.655ZM604.787 23L596.955 22.208L604.963 10.152H613.807L604.787 23ZM619.734 42.932C618.473 42.932 617.197 42.7267 615.906 42.316C614.645 41.9347 613.618 41.4213 612.826 40.776L615.73 34.924C616.229 35.364 616.801 35.7013 617.446 35.936C618.121 36.2 618.781 36.332 619.426 36.332C620.335 36.332 621.054 36.1267 621.582 35.716C622.11 35.3053 622.565 34.66 622.946 33.78L624.046 31.008L624.706 30.172L632.802 10.152H640.766L630.47 34.968C629.649 37.0213 628.695 38.62 627.61 39.764C626.554 40.9373 625.366 41.7587 624.046 42.228C622.755 42.6973 621.318 42.932 619.734 42.932ZM622.99 35.012L612.474 10.152H621.054L628.798 29.424L622.99 35.012ZM658.043 34.396C656.019 34.396 654.288 33.956 652.851 33.076C651.413 32.1667 650.313 30.8173 649.551 29.028C648.817 27.2093 648.451 24.892 648.451 22.076C648.451 19.2307 648.803 16.9133 649.507 15.124C650.211 13.3053 651.267 11.956 652.675 11.076C654.112 10.196 655.901 9.756 658.043 9.756C660.213 9.756 662.179 10.2693 663.939 11.296C665.728 12.2933 667.136 13.716 668.163 15.564C669.219 17.3827 669.747 19.5533 669.747 22.076C669.747 24.5987 669.219 26.784 668.163 28.632C667.136 30.48 665.728 31.9027 663.939 32.9C662.179 33.8973 660.213 34.396 658.043 34.396ZM643.039 42.536V10.152H651.003V14.2L650.959 22.076L651.399 29.996V42.536H643.039ZM656.283 27.752C657.221 27.752 658.057 27.532 658.791 27.092C659.553 26.652 660.155 26.0067 660.595 25.156C661.064 24.3053 661.299 23.2787 661.299 22.076C661.299 20.8733 661.064 19.8467 660.595 18.996C660.155 18.1453 659.553 17.5 658.791 17.06C658.057 16.62 657.221 16.4 656.283 16.4C655.344 16.4 654.493 16.62 653.731 17.06C652.997 17.5 652.396 18.1453 651.927 18.996C651.487 19.8467 651.267 20.8733 651.267 22.076C651.267 23.2787 651.487 24.3053 651.927 25.156C652.396 26.0067 652.997 26.652 653.731 27.092C654.493 27.532 655.344 27.752 656.283 27.752ZM685.289 34.396C682.649 34.396 680.288 33.868 678.205 32.812C676.152 31.756 674.539 30.304 673.365 28.456C672.192 26.5787 671.605 24.4373 671.605 22.032C671.605 19.6267 672.192 17.5 673.365 15.652C674.539 13.804 676.152 12.3667 678.205 11.34C680.288 10.284 682.649 9.756 685.289 9.756C687.988 9.756 690.32 10.328 692.285 11.472C694.251 12.616 695.644 14.2293 696.465 16.312L689.997 19.612C689.44 18.4973 688.751 17.6907 687.929 17.192C687.108 16.664 686.213 16.4 685.245 16.4C684.277 16.4 683.397 16.62 682.605 17.06C681.813 17.5 681.183 18.1453 680.713 18.996C680.273 19.8173 680.053 20.8293 680.053 22.032C680.053 23.264 680.273 24.3053 680.713 25.156C681.183 26.0067 681.813 26.652 682.605 27.092C683.397 27.532 684.277 27.752 685.245 27.752C686.213 27.752 687.108 27.5027 687.929 27.004C688.751 26.476 689.44 25.6547 689.997 24.54L696.465 27.84C695.644 29.9227 694.251 31.536 692.285 32.68C690.32 33.824 687.988 34.396 685.289 34.396Z" fill="#FE840E"/>
</svg>
