<svg width="388" height="349" viewBox="0 0 388 349" fill="none" xmlns="http://www.w3.org/2000/svg">
<path d="M327.648 616.976C262.038 605.198 205.524 547.61 159.525 483.281C113.603 419.057 78.3005 348.016 86.366 281.463C94.4314 214.91 145.921 152.482 207.757 114.724C269.669 77.0693 341.878 63.7981 411.327 73.5658C480.853 83.438 547.437 116.321 594.704 170.736C641.972 225.151 669.817 301.173 657.913 369.737C645.98 438.481 594.116 499.739 531.012 547.411C467.726 595.056 393.23 628.935 327.648 616.976Z" fill="#C81F56"/>
<path d="M301.929 327.553H316.19L338.608 261.613L276.298 257.831L301.929 327.553Z" fill="url(#paint0_linear_1_3676)"/>
<path d="M376.536 139.108C376.603 144.675 376.603 253.641 321.29 271.335C265.973 289.029 240.991 196.833 242.971 131.17L376.536 139.108Z" fill="url(#paint1_linear_1_3676)"/>
<path d="M353.278 337.555H264.844V348.291H353.278V337.555Z" fill="url(#paint2_linear_1_3676)"/>
<path d="M264.844 337.555H353.278L330.894 325.548H287.224L264.844 337.555Z" fill="url(#paint3_linear_1_3676)"/>
<path d="M382.945 123.645C387.802 123.94 391.775 127.536 391.775 131.632V140.016C391.775 144.113 387.799 147.253 382.939 146.992L231.34 138.835C226.484 138.574 222.507 135.006 222.507 130.91V121.336C222.507 117.239 226.481 114.126 231.337 114.422L382.945 123.645Z" fill="url(#paint4_linear_1_3676)"/>
<path d="M282.12 279.996C285.65 279.996 288.698 277.763 289.11 274.737C289.55 271.483 286.773 268.543 282.91 268.17C282.178 268.097 231.302 262.724 226.477 234.881C225.662 230.187 225.754 224.052 230.804 221.493C234.968 219.377 241.79 220.051 246.668 223.055C249.439 224.762 252.477 227.752 251.186 232.307C250.281 235.493 252.619 238.691 256.402 239.451C260.185 240.214 263.986 238.245 264.893 235.059C267.237 226.804 263.531 218.737 254.987 213.478C245.496 207.635 232.563 206.749 223.527 211.328C218.247 214.004 209.801 220.844 212.529 236.591C215.227 252.159 228.227 264.63 250.125 272.658C265.847 278.421 280.68 279.897 281.304 279.956C281.578 279.984 281.849 279.996 282.12 279.996Z" fill="url(#paint5_linear_1_3676)"/>
<path d="M334.881 279.996C331.347 279.996 328.3 277.763 327.894 274.737C327.448 271.483 330.225 268.543 334.088 268.17C334.826 268.097 385.698 262.724 390.524 234.881C391.336 230.187 391.243 224.052 386.2 221.493C382.032 219.377 375.208 220.051 370.333 223.055C367.562 224.762 364.523 227.752 365.815 232.307C366.719 235.493 364.382 238.691 360.599 239.451C356.816 240.214 353.012 238.245 352.107 235.059C349.767 226.804 353.467 218.737 362.011 213.478C371.505 207.635 384.44 206.749 393.47 211.328C398.751 214.004 407.199 220.844 404.471 236.591C401.771 252.159 388.774 264.63 366.876 272.658C351.151 278.421 336.317 279.897 335.693 279.956C335.419 279.984 335.149 279.996 334.881 279.996Z" fill="url(#paint6_linear_1_3676)"/>
<defs>
<linearGradient id="paint0_linear_1_3676" x1="286.436" y1="257.761" x2="450.887" y2="468.491" gradientUnits="userSpaceOnUse">
<stop stop-color="#FEB447"/>
<stop offset="1" stop-color="#FE840E"/>
</linearGradient>
<linearGradient id="paint1_linear_1_3676" x1="253.354" y1="106.683" x2="370.246" y2="318.412" gradientUnits="userSpaceOnUse">
<stop stop-color="#FEB447"/>
<stop offset="1" stop-color="#FE840E"/>
</linearGradient>
<linearGradient id="paint2_linear_1_3676" x1="308.219" y1="329.11" x2="313.463" y2="414.997" gradientUnits="userSpaceOnUse">
<stop stop-color="#FEB447"/>
<stop offset="1" stop-color="#FE840E"/>
</linearGradient>
<linearGradient id="paint3_linear_1_3676" x1="269.805" y1="294.675" x2="327.728" y2="352.598" gradientUnits="userSpaceOnUse">
<stop stop-color="#FEB447"/>
<stop offset="1" stop-color="#FE840E"/>
</linearGradient>
<linearGradient id="paint4_linear_1_3676" x1="232.402" y1="69.7407" x2="401.123" y2="194.806" gradientUnits="userSpaceOnUse">
<stop stop-color="#FEB447"/>
<stop offset="1" stop-color="#FE840E"/>
</linearGradient>
<linearGradient id="paint5_linear_1_3676" x1="212.169" y1="200.238" x2="355.812" y2="379.977" gradientUnits="userSpaceOnUse">
<stop stop-color="#FEB447"/>
<stop offset="1" stop-color="#FE840E"/>
</linearGradient>
<linearGradient id="paint6_linear_1_3676" x1="328.015" y1="200.238" x2="471.66" y2="379.974" gradientUnits="userSpaceOnUse">
<stop stop-color="#FEB447"/>
<stop offset="1" stop-color="#FE840E"/>
</linearGradient>
</defs>
</svg>
