<svg width="223" height="204" viewBox="0 0 223 204" fill="none" xmlns="http://www.w3.org/2000/svg">
<path d="M31.9285 91.7251C31.9285 91.7251 69.4413 82.3474 109.078 88.0022C120.229 89.5938 130.107 96.059 136.124 105.55C146.967 122.649 162.298 153.12 159.056 184.901L142.035 189.095C142.035 189.095 130.273 151.381 117.035 136.031C117.035 136.031 101.356 171.642 102.151 191.198C102.172 191.751 102.208 192.291 102.257 192.818C104.056 211.95 26.998 196.387 26.998 196.387L31.9285 91.7251Z" fill="url(#paint0_linear_1_3816)"/>
<path d="M62.2002 59.588L63.9112 86.1033C64.0701 88.5698 65.6739 90.6602 67.9186 91.3226C73.0914 92.8482 82.861 94.6892 92.4398 90.8436C94.1906 90.1402 95.0911 88.0709 94.5018 86.1851L81.8359 45.6401L62.2002 59.588Z" fill="url(#paint1_linear_1_3816)"/>
<path d="M57.9188 21.1865C57.9188 21.1865 49.8272 39.7084 49.2829 49.4306C48.7386 59.1528 46.6369 65.4609 57.9188 67.4193C69.2007 69.3778 78.7027 63.777 83.8504 54.0931C83.8504 54.0931 91.9182 39.17 90.1078 33.0598C88.3001 26.9483 57.9188 21.1865 57.9188 21.1865Z" fill="url(#paint2_linear_1_3816)"/>
<path d="M79.996 47.13H78.571C78.571 47.13 84.4458 35.1195 79.2822 33.0093C74.12 30.8991 53.6685 26.7434 49.2571 19.5128C45.0021 12.5409 48.7976 3.53662 54.4723 1.01732C54.8312 0.857638 55.2563 1.02524 55.4391 1.37232L55.9079 2.25915C56.2297 2.86621 57.1302 2.77515 57.3209 2.11531C57.5037 1.48845 58.3499 1.35252 58.6956 1.90415C60.0464 4.06713 63.7029 7.58412 73.5135 9.38814C87.4321 11.947 96.6322 17.561 96.86 27.1473C96.8732 27.7543 97.5248 28.0895 98.0452 27.7728C99.0742 27.1486 100.718 26.8569 102.916 28.6979C106.739 31.9008 105.174 40.2082 96.7964 47.0403C96.3978 47.3649 96.4004 47.9852 96.8321 48.265C98.3498 49.2508 100.613 51.5932 94.7477 54.7209C88.7471 57.9172 85.1953 57.5688 83.8538 57.2257C83.4936 57.1346 83.2499 56.8074 83.2737 56.4365L83.8008 47.9403C83.8273 47.5009 83.4777 47.13 83.0353 47.13H79.996V47.13Z" fill="url(#paint3_linear_1_3816)"/>
<path d="M79.6465 48.9076C79.6465 48.9076 82.7335 37.0753 88.0573 40.393C93.381 43.712 85.2947 53.6506 81.0145 54.094L79.6465 48.9076Z" fill="url(#paint4_linear_1_3816)"/>
<path d="M32.1625 167.964C30.5018 156.272 42.6524 139.083 47.6796 132.561C49.1165 130.696 49.919 128.414 49.9402 126.063C50.0872 109.502 43.1107 98.8678 31.9294 91.7256C31.9294 91.7256 -8.64789 138.833 1.68449 175.067C2.79957 178.977 4.52648 182.337 6.71824 185.223C8.34583 171.572 24.1834 168.594 32.1625 167.964Z" fill="url(#paint5_linear_1_3816)"/>
<path d="M32.9199 163.441L31.373 163.265C32.6841 151.798 42.7794 137.642 47.061 132.089L48.2953 133.034C44.0945 138.485 34.1859 152.361 32.9199 163.441Z" fill="url(#paint6_linear_1_3816)"/>
<path d="M32.4798 169.583C32.3395 169.059 32.2388 168.514 32.162 167.963C24.183 168.594 8.34537 171.571 6.71777 185.224C24.8266 209.089 74.7364 200.479 74.7364 200.479V191.194C74.7377 191.194 36.4038 184.097 32.4798 169.583Z" fill="url(#paint7_linear_1_3816)"/>
<path d="M69.9395 197.916C69.9395 197.916 77.308 180.587 90.293 186.734C103.281 192.88 102.258 196.902 102.258 196.902L69.9395 197.916Z" fill="url(#paint8_linear_1_3816)"/>
<path d="M68.2841 201.511C68.3874 202.822 69.5091 203.819 70.8268 203.775L138.117 201.436C139.165 201.399 140.073 200.709 140.386 199.713L142.339 193.485C142.817 191.955 141.723 190.384 140.117 190.299L115.578 189.001C115.356 188.989 115.132 189.007 114.914 189.056L70.2097 198.922C69.0072 199.185 68.1874 200.291 68.2841 201.511Z" fill="url(#paint9_linear_1_3816)"/>
<path d="M113.39 199.064L115.241 190.467L140.447 191.666L138.789 198.798L113.39 199.064Z" fill="url(#paint10_linear_1_3816)"/>
<path d="M100.468 106.524C99.0402 118.14 92.6225 165.334 90.7857 178.817C90.5274 180.713 92.0385 182.38 93.9587 182.326L202.819 179.221C204.244 179.18 205.46 178.181 205.769 176.794L222.703 100.795C223.15 98.7869 221.547 96.9089 219.485 97.029L103.371 103.807C101.873 103.895 100.649 105.037 100.468 106.524Z" fill="url(#paint11_linear_1_3816)"/>
<path d="M144.227 154.182L128.139 199.689L165.551 200.48L168.666 154.457C168.813 152.296 167.016 150.504 164.848 150.647L147.376 151.803C145.942 151.898 144.706 152.833 144.227 154.182Z" fill="url(#paint12_linear_1_3816)"/>
<path d="M112.97 200.337C112.558 201.59 113.495 202.878 114.818 202.878H173.406C174.48 202.878 175.348 202.012 175.348 200.942V198.438C175.348 197.336 174.428 196.456 173.324 196.504L114.736 199.007C113.924 199.043 113.223 199.572 112.97 200.337Z" fill="url(#paint13_linear_1_3816)"/>
<path d="M98.8242 154.535L98.0508 154.437L103.4 112.402C103.731 109.795 105.883 107.789 108.516 107.63L208.854 101.591L208.901 102.366L108.562 108.405C106.304 108.541 104.457 110.263 104.173 112.501L98.8242 154.535Z" fill="#FEB447"/>
<path d="M97.3098 166.508L96.5361 166.409L95.3609 175.506L96.1345 175.605L97.3098 166.508Z" fill="#FEB447"/>
<defs>
<linearGradient id="paint0_linear_1_3816" x1="57.9537" y1="115.671" x2="153.224" y2="259.078" gradientUnits="userSpaceOnUse">
<stop stop-color="#FEB447"/>
<stop offset="1" stop-color="#D93C65"/>
</linearGradient>
<linearGradient id="paint1_linear_1_3816" x1="79.1458" y1="121.18" x2="78.373" y2="68.4374" gradientUnits="userSpaceOnUse">
<stop stop-color="#F9B776"/>
<stop offset="1" stop-color="#F47960"/>
</linearGradient>
<linearGradient id="paint2_linear_1_3816" x1="56.2238" y1="37.4895" x2="102.362" y2="72.9161" gradientUnits="userSpaceOnUse">
<stop stop-color="#F9B776"/>
<stop offset="1" stop-color="#F47960"/>
</linearGradient>
<linearGradient id="paint3_linear_1_3816" x1="88.7234" y1="9.64548" x2="47.0182" y2="63.5295" gradientUnits="userSpaceOnUse">
<stop stop-color="#CB236D"/>
<stop offset="1" stop-color="#F06C46"/>
</linearGradient>
<linearGradient id="paint4_linear_1_3816" x1="61.9604" y1="30.0195" x2="108.096" y2="65.4444" gradientUnits="userSpaceOnUse">
<stop stop-color="#F9B776"/>
<stop offset="1" stop-color="#F47960"/>
</linearGradient>
<linearGradient id="paint5_linear_1_3816" x1="22.1036" y1="139.488" x2="117.373" y2="282.893" gradientUnits="userSpaceOnUse">
<stop stop-color="#FEB447"/>
<stop offset="1" stop-color="#D93C65"/>
</linearGradient>
<linearGradient id="paint6_linear_1_3816" x1="50.1756" y1="131.776" x2="31.2112" y2="166.332" gradientUnits="userSpaceOnUse">
<stop stop-color="#FDF53F"/>
<stop offset="1" stop-color="#FEB447"/>
</linearGradient>
<linearGradient id="paint7_linear_1_3816" x1="27.8957" y1="154.559" x2="57.2928" y2="232.191" gradientUnits="userSpaceOnUse">
<stop stop-color="#F9B776"/>
<stop offset="1" stop-color="#F47960"/>
</linearGradient>
<linearGradient id="paint8_linear_1_3816" x1="64.5937" y1="140.662" x2="93.9906" y2="218.294" gradientUnits="userSpaceOnUse">
<stop stop-color="#F9B776"/>
<stop offset="1" stop-color="#F47960"/>
</linearGradient>
<linearGradient id="paint9_linear_1_3816" x1="128.788" y1="168.828" x2="113.548" y2="188.529" gradientUnits="userSpaceOnUse">
<stop stop-color="#F5FA72"/>
<stop offset="1" stop-color="#C81F56"/>
</linearGradient>
<linearGradient id="paint10_linear_1_3816" x1="140.227" y1="177.676" x2="124.986" y2="197.377" gradientUnits="userSpaceOnUse">
<stop stop-color="#FEB447"/>
<stop offset="1" stop-color="#FE840E"/>
</linearGradient>
<linearGradient id="paint11_linear_1_3816" x1="145.405" y1="110.723" x2="172.482" y2="180.207" gradientUnits="userSpaceOnUse">
<stop stop-color="#C81F56"/>
<stop offset="1" stop-color="#F73866"/>
</linearGradient>
<linearGradient id="paint12_linear_1_3816" x1="142.127" y1="138.322" x2="157.588" y2="233.744" gradientUnits="userSpaceOnUse">
<stop stop-color="#C81F56"/>
<stop offset="1" stop-color="#F73865"/>
</linearGradient>
<linearGradient id="paint13_linear_1_3816" x1="135.117" y1="193.815" x2="180.945" y2="223.954" gradientUnits="userSpaceOnUse">
<stop stop-color="#C81F56"/>
<stop offset="1" stop-color="#C81F56"/>
</linearGradient>
</defs>
</svg>
